<svg xmlns="http://www.w3.org/2000/svg" width="512" height="512" viewBox="0 0 512 512">
  <rect width="512" height="512" rx="100" fill="#e8521a"/>
  <rect x="96" y="96" width="116" height="116" rx="14" fill="none" stroke="#fff" stroke-width="22"/>
  <rect x="128" y="128" width="52" height="52" rx="6" fill="#fff"/>
  <rect x="300" y="96" width="116" height="116" rx="14" fill="none" stroke="#fff" stroke-width="22"/>
  <rect x="332" y="128" width="52" height="52" rx="6" fill="#fff"/>
  <rect x="96" y="300" width="116" height="116" rx="14" fill="none" stroke="#fff" stroke-width="22"/>
  <rect x="128" y="332" width="52" height="52" rx="6" fill="#fff"/>
  <rect x="300" y="300" width="24" height="24" rx="3" fill="#fff"/>
  <rect x="340" y="300" width="24" height="24" rx="3" fill="#fff"/>
  <rect x="392" y="300" width="24" height="24" rx="3" fill="#fff"/>
  <rect x="300" y="340" width="24" height="24" rx="3" fill="#fff"/>
  <rect x="392" y="340" width="24" height="24" rx="3" fill="#fff"/>
  <rect x="300" y="392" width="24" height="24" rx="3" fill="#fff"/>
  <rect x="340" y="392" width="76" height="24" rx="3" fill="#fff"/>
</svg>
